HIERARCHY
ROOT Hips
{
	OFFSET 0.000000 0.000000 0.000000
	CHANNELS 6 Xposition Yposition Zposition Zrotation Yrotation Xrotation 
	JOINT LHipJoint
	{
		OFFSET 0.000000 0.000000 0.000000
		CHANNELS 3 Zrotation Yrotation Xrotation
		JOINT LeftUpLeg
		{
			OFFSET 1.363060 -1.794630 0.839290
			CHANNELS 3 Zrotation Yrotation Xrotation
			JOINT LeftLeg
			{
				OFFSET 2.448110 -6.726130 0.000000
				CHANNELS 3 Zrotation Yrotation Xrotation
				JOINT LeftFoot
				{
					OFFSET 2.562200 -7.039590 0.000000
					CHANNELS 3 Zrotation Yrotation Xrotation
					JOINT LeftToeBase
					{
						OFFSET 0.157640 -0.433110 2.322550
						CHANNELS 3 Zrotation Yrotation Xrotation
						End Site
						{
							OFFSET 0.000000 0.000000 0.000000
						}
					}
				}
			}
		}
	}
	JOINT RHipJoint
	{
		OFFSET 0.000000 0.000000 0.000000
		CHANNELS 3 Zrotation Yrotation Xrotation
		JOINT RightUpLeg
		{
			OFFSET -1.305520 -1.794630 0.839290
			CHANNELS 3 Zrotation Yrotation Xrotation
			JOINT RightLeg
			{
				OFFSET -2.542530 -6.985550 0.000000
				CHANNELS 3 Zrotation Yrotation Xrotation
				JOINT RightFoot
				{
					OFFSET -2.568260 -7.056230 0.000000
					CHANNELS 3 Zrotation Yrotation Xrotation
					JOINT RightToeBase
					{
						OFFSET -0.164730 -0.452590 2.363150
						CHANNELS 3 Zrotation Yrotation Xrotation
						End Site
						{
							OFFSET 0.000000 0.000000 0.000000
						}
					}
				}
			}
		}
	}
	JOINT LowerBack
	{
		OFFSET 0.000000 0.000000 0.000000
		CHANNELS 3 Zrotation Yrotation Xrotation
		JOINT Spine
		{
			OFFSET 0.028270 2.035590 -0.193380
			CHANNELS 3 Zrotation Yrotation Xrotation
			JOINT Spine1
			{
				OFFSET 0.056720 2.048850 -0.042750
				CHANNELS 3 Zrotation Yrotation Xrotation
				JOINT Neck
				{
					OFFSET 0.000000 0.000000 0.000000
					CHANNELS 3 Zrotation Yrotation Xrotation
					JOINT Neck1
					{
						OFFSET -0.054170 1.746240 0.172020
						CHANNELS 3 Zrotation Yrotation Xrotation
						JOINT Head
						{
							OFFSET 0.104070 1.761360 -0.123970
							CHANNELS 3 Zrotation Yrotation Xrotation
							End Site
							{
								OFFSET 0.000000 0.000000 0.000000
							}
						}
					}
				}
				JOINT LeftShoulder
				{
					OFFSET 0.000000 0.000000 0.000000
					CHANNELS 3 Zrotation Yrotation Xrotation
					JOINT LeftArm
					{
						OFFSET 3.362410 1.200890 -0.311210
						CHANNELS 3 Zrotation Yrotation Xrotation
						JOINT LeftForeArm
						{
							OFFSET 4.983000 -0.000000 -0.000000
							CHANNELS 3 Zrotation Yrotation Xrotation
							JOINT LeftHand
							{
								OFFSET 3.483560 -0.000000 -0.000000
								CHANNELS 3 Zrotation Yrotation Xrotation
								JOINT LeftFingerBase
								{
									OFFSET 0.000000 0.000000 0.000000
									CHANNELS 3 Zrotation Yrotation Xrotation
									JOINT LeftHandIndex1
									{
										OFFSET 0.715260 -0.000000 -0.000000
										CHANNELS 3 Zrotation Yrotation Xrotation
										End Site
										{
											OFFSET 0.000000 0.000000 0.000000
										}
									}
								}
								JOINT LThumb
								{
									OFFSET 0.000000 0.000000 0.000000
									CHANNELS 3 Zrotation Yrotation Xrotation
									End Site
									{
										OFFSET 0.000000 0.000000 0.000000
									}
								}
							}
						}
					}
				}
				JOINT RightShoulder
				{
					OFFSET 0.000000 0.000000 0.000000
					CHANNELS 3 Zrotation Yrotation Xrotation
					JOINT RightArm
					{
						OFFSET -3.136600 1.374050 -0.404650
						CHANNELS 3 Zrotation Yrotation Xrotation
						JOINT RightForeArm
						{
							OFFSET -5.241900 -0.000000 -0.000000
							CHANNELS 3 Zrotation Yrotation Xrotation
							JOINT RightHand
							{
								OFFSET -3.444170 -0.000000 -0.000000
								CHANNELS 3 Zrotation Yrotation Xrotation
								JOINT RightFingerBase
								{
									OFFSET 0.000000 0.000000 0.000000
									CHANNELS 3 Zrotation Yrotation Xrotation
									JOINT RightHandIndex1
									{
										OFFSET -0.622530 -0.000000 -0.000000
										CHANNELS 3 Zrotation Yrotation Xrotation
										End Site
										{
											OFFSET 0.000000 0.000000 0.000000
										}
									}
								}
								JOINT RThumb
								{
									OFFSET 0.000000 0.000000 0.000000
									CHANNELS 3 Zrotation Yrotation Xrotation
									End Site
									{
										OFFSET 0.000000 0.000000 0.000000
									}
								}
							}
						}
					}
				}
			}
		}
	}
}
MOTION
Frames: 5
Frame Time: 0.008333
8.760347 18.069844 21.752221 -1.036162 3.206775 6.464938 -2.984335 -3.835030 -1.032164 -15.086265 -1.223812 -1.824081 -0.861019 3.876433 7.574819 0.202167 4.134228 8.712802 0.000000 0.000000 0.000000 -0.856793 3.124197 -4.154847 24.633514 3.480422 5.841628 0.563513 -2.676812 3.705756 0.212725 -12.442462 -21.333924 -0.424500 -4.181800 11.588800 1.787034 1.991966 -4.722821 0.167615 2.028950 -8.065711 -3.543800 1.085435 -0.049765 -2.488963 -3.208491 -3.978263 3.166784 -4.341833 8.357745 0.846900 -2.022400 0.940000 -0.570040 -8.657744 2.192507 -82.813902 2.201513 44.888325 11.789593 -16.068426 -1.643787 0.440076 0.264164 -11.934486 8.966264 -8.948243 -1.355400 -7.125000 0.000000 0.000000 -13.188500 20.849200 7.837800 0.324719 9.253921 2.421511 89.751591 -10.584603 22.948228 -15.142417 18.829513 -3.958641 1.897609 1.320286 3.746564 -6.843888 -39.417482 5.646200 7.125000 0.000000 0.000000 37.513600 -67.402300 -21.401200 
8.759258 18.074992 21.763210 -0.772228 3.289919 6.482457 -2.991462 -3.845147 -1.041524 -15.377255 -1.285027 -1.900670 -0.856994 3.960508 7.786443 0.202529 4.131146 8.696316 0.000000 0.000000 0.000000 -0.842154 3.142264 -4.163168 24.397326 3.590554 6.082043 0.568826 -2.627614 3.591679 0.224728 -12.591439 -21.443644 -0.396400 -4.042700 11.196900 1.478551 1.927150 -4.803569 0.140920 1.968394 -8.067316 -3.430598 1.062030 -0.010754 -2.722415 -3.092127 -4.032234 3.371628 -4.217401 8.392717 0.941600 -1.960600 0.969100 -0.569257 -8.673641 2.195771 -82.831121 2.223806 45.211345 11.923929 -16.237324 -1.678544 0.423743 0.279625 -12.496095 9.399666 -8.682921 -1.388600 -7.125000 0.000000 0.000000 -12.891600 21.082400 7.582100 0.322382 9.237801 2.412556 89.711177 -10.539569 22.367985 -15.261832 18.939201 -3.958216 1.876748 1.296371 4.916360 -5.610370 -38.914390 4.757100 7.125000 0.000000 0.000000 38.099600 -66.668900 -21.156300 
8.756882 18.075190 21.770338 -0.684810 3.280804 6.506132 -2.990110 -3.845058 -1.036058 -15.449443 -1.127085 -1.843998 -0.862190 3.888415 7.582094 0.203855 4.132812 8.684747 0.000000 0.000000 0.000000 -0.837111 3.149291 -4.169025 24.336609 3.690647 6.182346 0.572027 -2.609532 3.548829 0.222744 -12.631540 -21.556377 -0.393400 -4.027500 11.154100 1.340577 1.913985 -4.925146 0.137085 1.962268 -8.017729 -3.359363 1.062861 0.132770 -2.780391 -3.056214 -4.061970 3.412836 -4.172987 8.268241 0.963700 -1.940000 0.941000 -0.566354 -8.682816 2.195070 -82.873821 1.960040 45.153440 11.854585 -16.144296 -1.661286 0.422720 0.285366 -12.540825 9.523240 -8.707708 -1.412900 -7.125000 0.000000 0.000000 -12.802000 21.048100 7.536900 0.323318 9.234788 2.409387 89.626413 -10.337644 22.370071 -15.339239 19.013547 -3.959733 1.858389 1.294649 5.099117 -5.077455 -38.583264 4.366900 7.125000 0.000000 0.000000 38.181600 -66.266000 -20.864700 
8.757971 18.074200 21.774199 -0.634640 3.233584 6.541846 -2.981729 -3.835226 -1.004373 -15.471809 -0.555939 -1.556605 -0.882093 3.539685 6.622952 0.208069 4.139164 8.653910 0.000000 0.000000 0.000000 -0.836595 3.149852 -4.178168 24.257123 3.666400 6.155027 0.568639 -2.615426 3.562856 0.205487 -12.521543 -21.598009 -0.364500 -3.878200 10.734200 1.300612 1.932388 -5.027515 0.122342 1.989824 -7.974979 -3.355829 1.075994 0.254017 -2.742152 -3.038082 -3.985404 3.421536 -4.148170 8.040835 0.963200 -1.930200 0.862600 -0.565594 -8.689084 2.195162 -82.887911 1.731293 45.127954 11.821785 -16.101844 -1.651968 0.423194 0.282198 -12.518213 9.426051 -8.706152 -1.396800 -7.125000 0.000000 0.000000 -12.871000 21.056000 7.577300 0.322268 9.233553 2.411621 89.527797 -10.129281 22.561828 -15.421206 19.111428 -3.990960 1.851762 1.306314 4.967414 -4.986047 -38.684334 4.314600 7.125000 0.000000 0.000000 38.446200 -66.321500 -21.075500 
8.765495 18.077170 21.776080 -0.573992 3.325290 6.537595 -2.982259 -3.841263 -1.001536 -15.613145 -0.428809 -1.581162 -0.881772 3.535020 6.602751 0.208731 4.138099 8.642647 0.000000 0.000000 0.000000 -0.834005 3.150683 -4.186643 24.074995 3.238926 6.032645 0.555937 -2.623428 3.583773 0.192759 -12.303163 -21.349269 -0.341600 -3.755600 10.390200 1.331386 1.920998 -5.001353 0.093594 1.972850 -7.973453 -3.430516 1.064164 0.248374 -2.690187 -3.018490 -3.903094 3.450159 -4.125105 7.882693 0.965500 -1.920400 0.804000 -0.567718 -8.690952 2.197617 -82.823919 1.702181 45.491178 11.896371 -16.197981 -1.670991 0.421481 0.282134 -12.845533 9.412314 -8.701728 -1.393700 -7.125000 0.000000 0.000000 -12.880800 21.063300 7.581200 0.318640 9.232734 2.415553 89.439031 -9.987873 22.752046 -15.498610 19.216916 -4.041210 1.851279 1.329454 4.699923 -5.063432 -39.110866 4.406500 7.125000 0.000000 0.000000 39.042800 -66.676200 -21.753000 
